<?xml version="1.0" encoding="utf-8"?>
<!-- Generator: Adobe Illustrator 27.9.0, SVG Export Plug-In . SVG Version: 6.00 Build 0)  -->
<svg version="1.1" id="Layer_1" xmlns="http://www.w3.org/2000/svg" xmlns:xlink="http://www.w3.org/1999/xlink" x="0px" y="0px"
	 viewBox="0 0 85 85" style="enable-background:new 0 0 85 85;" xml:space="preserve">
<style type="text/css">
	.st0{fill:#FFFFFF;}
	.st1{fill:#141414;}
</style>
<g>
	<path class="st0" d="M85,42.5C85,59.3,80.6,85,42.5,85S0,59.3,0,42.5S4.4,0,42.5,0S85,25.7,85,42.5z"/>
</g>
<g>
	<path class="st1" d="M59.5,35.4h-4.2v-4.2h4.2V35.4z M59.5,43.9v4.2h4.2v-4.2v-4.2v-4.2h-4.2v4.2V43.9z M29.8,31.2h-4.2v4.2h4.2
		V31.2z M55.3,35.4H51v4.2h4.2V35.4z M18.4,73.7h4.2h4.2v-4.2h-4.2h-4.2v-4.2v-4.2v-4.2h2.8v-4.2v-4.2H17v4.2v4.2h-2.8H9.9v4.2h4.2
		v4.2H9.9v4.2h4.2v4.2v3.8c1.3,0.9,2.7,1.8,4.2,2.6v-2.1V73.7z M49.6,56.7v4.2h4.2v-4.2v-4.2h-4.2V56.7z M70.8,69.4h4.2v-4.2h-4.2
		v-4.2h4.2v-4.2h-4.2H68v-4.2v-4.2h-4.2v4.2v4.2h2.8v4.2v4.2v4.2h-4.2h-4.2v4.2h4.2h4.2v4.2V80c1.5-0.8,3-1.7,4.2-2.6v-3.8V69.4z
		 M31.2,56.7v4.2h4.2v-4.2v-4.2h-4.2V56.7z M25.5,43.9v-4.2v-4.2h-4.2v4.2v4.2v4.2h4.2V43.9z M38.3,43.9h4.2h4.2H51v-4.2h-4.2h-4.2
		h-4.2H34v4.2H38.3z M34,39.7v-4.2h-4.2v4.2H34z"/>
</g>
</svg>
