<?xml version="1.0" encoding="UTF-8"?>
<svg id="_レイヤー_1" data-name="レイヤー_1" xmlns="http://www.w3.org/2000/svg" version="1.1" viewBox="0 0 16 16">
  <!-- Generator: Adobe Illustrator 29.3.1, SVG Export Plug-In . SVG Version: 2.1.0 Build 151)  -->
  <path d="M8,8.5c-1,0-1.8-.4-2.3-1.1-.5-.7-.7-1.7-.4-2.7.6-2,2.6-3.5,4.6-3.5,1,0,1.8.4,2.3,1.1.5.7.7,1.7.4,2.7-.6,2-2.6,3.5-4.6,3.5M9.8,2c-1.6,0-3.2,1.2-3.7,2.8-.2.7-.1,1.4.3,1.9.4.5.9.7,1.6.7,1.6,0,3.2-1.2,3.7-2.8.2-.7.1-1.4-.3-1.9-.4-.5-.9-.7-1.6-.7"/>
  <path d="M6.2,14.9c-1,0-1.8-.4-2.3-1.1-.5-.7-.7-1.7-.4-2.7,0-.2.3-.4.6-.3.2,0,.4.3.3.6-.2.7-.1,1.4.3,1.9.4.5.9.7,1.6.7,1.6,0,2.6-1.2,3.2-2.2.6-1,1.2-2.9,1.2-3l1.2-4c0-.2.3-.4.6-.3.2,0,.4.3.3.6l-1.2,4.1c0,0-.6,2-1.2,3.1-1,1.8-2.4,2.7-4,2.7"/>
</svg>